<?xml version="1.0" encoding="UTF-8"?>
<svg width="145px" height="21px" viewBox="0 0 145 21" version="1.1" xmlns="http://www.w3.org/2000/svg" xmlns:xlink="http://www.w3.org/1999/xlink">
    <!-- Generator: Sketch 40 (33762) - http://www.bohemiancoding.com/sketch -->
    <title>Fill 3</title>
    <desc>Created with Sketch.</desc>
    <defs></defs>
    <g id="Page-1" stroke="none" stroke-width="1" fill="none" fill-rule="evenodd">
        <path d="M7.12314985,7.87542969 C6.28245804,7.87542969 5.70435519,7.80805369 5.34202313,7.74549026 L5.34202313,3.90849566 C5.90248434,3.86036995 6.60272159,3.77374366 7.60965189,3.77374366 C8.82421069,3.77374366 9.63369038,4.59394336 9.63369038,5.82458668 C9.63369038,6.89091504 8.9049551,7.87542969 7.12314985,7.87542969 L7.12314985,7.87542969 Z M11.0104165,11.8128008 C10.317643,10.9829759 9.82232018,10.1545261 9.52241237,9.441578 C11.0138091,8.78775577 12.0621294,7.39279751 12.0621294,5.74346047 C12.0621294,3.03467016 10.1195139,1.72221313 7.69107483,1.72221313 C6.80085073,1.72221313 5.42480311,1.88721558 4.37173314,1.88721558 C2.34769465,1.88721558 1.94261555,1.55858569 1.13381438,0.985202161 L0,2.78991652 C0.243590284,3.11648388 0.647990866,3.52761499 1.29462468,3.77374366 C1.83065901,3.95524636 2.24388041,3.98618432 2.83283965,3.97724669 L2.83283965,15.1754133 L5.34202313,15.1754133 L5.34202313,9.68976919 C5.7294606,9.74820756 6.34284671,9.8176461 7.16386132,9.8382714 C7.54112092,11.2297921 8.28681931,12.5821247 9.2292898,13.5363889 C10.3624257,14.684531 11.3340727,15.2586021 12.3857856,15.5040432 L13.5196,13.4532002 C12.6293759,13.1252578 11.8192177,12.7148142 11.0104165,11.8128008 L11.0104165,11.8128008 Z M37.8874492,9.76127026 C36.9158021,9.10401048 36.025578,8.77881814 36.025578,8.12293338 C36.025578,7.71180226 36.3492342,7.46498609 36.8343792,7.46498609 C37.8874492,7.46498609 39.0212636,8.53268947 39.0212636,8.53268947 L40.0729765,6.64478638 C40.0729765,6.64478638 38.6969289,5.5777705 36.9158021,5.5777705 C34.6495304,5.5777705 33.9201166,7.13566869 33.9201166,8.12293338 C33.9201166,9.68014405 34.8917636,10.4178425 36.025578,11.156916 C37.1580354,11.8946145 37.8874492,12.2225569 37.8874492,12.8805042 C37.8874492,13.2070715 37.563793,13.4532002 36.9972251,13.4532002 C36.3492342,13.4532002 35.2160983,12.9602554 34.3251957,12.2225569 L33.4349716,14.1915862 C33.4349716,14.1915862 34.7295963,15.5040432 36.9158021,15.5040432 C38.9391621,15.5040432 40.3158882,14.1915862 40.3158882,12.7148142 C40.3158882,11.156916 39.0212636,10.5835325 37.8874492,9.76127026 L37.8874492,9.76127026 Z M22.6681454,5.90640039 L20.3197722,5.90640039 L20.3197722,11.9661156 C19.8943374,12.7223768 19.1303188,13.370699 18.2957337,13.370699 C17.2433423,13.370699 16.8389417,12.8805042 16.8389417,11.2387297 L16.8389417,5.90640039 L14.4905685,5.90640039 L14.4905685,12.1400557 C14.4905685,13.9454575 15.3014052,15.5040432 17.486254,15.5040432 C19.1052134,15.5040432 19.9146931,14.5181535 20.4011951,13.9454575 L20.4378355,13.9454575 C20.6536062,14.7134064 21.1346801,15.2001637 21.6150754,15.5040432 L23.5583695,14.3559011 C23.0718674,13.6182027 22.6681454,12.633688 22.6681454,10.8289736 L22.6681454,5.90640039 L22.6681454,5.90640039 Z M29.549062,9.76127026 C28.577415,9.10401048 27.6865123,8.77881814 27.6865123,8.12293338 C27.6865123,7.71180226 28.010847,7.46498609 28.495992,7.46498609 C29.549062,7.46498609 30.6828764,8.53268947 30.6828764,8.53268947 L31.7345893,6.64478638 C31.7345893,6.64478638 30.3585417,5.5777705 28.577415,5.5777705 C26.3111432,5.5777705 25.5817294,7.13566869 25.5817294,8.12293338 C25.5817294,9.68014405 26.5533765,10.4178425 27.6865123,11.156916 C28.8196482,11.8946145 29.549062,12.2225569 29.549062,12.8805042 C29.549062,13.2070715 29.2247273,13.4532002 28.6588379,13.4532002 C28.010847,13.4532002 26.8770326,12.9602554 25.9874871,12.2225569 L25.0959059,14.1915862 C25.0959059,14.1915862 26.3918877,15.5040432 28.577415,15.5040432 C30.6007749,15.5040432 31.9768225,14.1915862 31.9768225,12.7148142 C31.9768225,11.156916 30.6828764,10.5835325 29.549062,9.76127026 L29.549062,9.76127026 Z M42.5020941,15.1754133 L44.9298546,15.1754133 L44.9298546,5.90571288 L42.5020941,5.90571288 L42.5020941,15.1754133 Z M52.7824183,12.6343755 C52.5293286,12.8832542 51.7015288,13.6182027 50.7590583,13.6182027 C50.111746,13.6182027 49.7874113,13.2070715 49.7874113,12.7148142 C49.7874113,11.8946145 50.3546577,11.5666721 51.4063706,11.321231 C52.0075433,11.1988541 52.46894,11.1369782 52.7824183,11.1060403 L52.7824183,12.6343755 L52.7824183,12.6343755 Z M55.0493685,8.77881814 C55.0493685,6.56228515 53.6739994,5.5777705 51.7307053,5.5777705 C50.111746,5.5777705 48.4921081,6.23503028 47.6826284,6.97204125 L48.8157642,8.94175806 L51.1641374,7.21816991 C52.7016738,7.21816991 52.7824183,7.87542969 52.7824183,9.10401048 L52.7824183,9.43539041 C50.666779,9.47251596 47.3596507,10.2425274 47.3596507,12.9602554 C47.3596507,14.3559011 48.4120422,15.5040432 49.9495786,15.5040432 C51.443011,15.5040432 52.4078728,14.681781 52.9595131,14.0774595 C53.1454289,14.6934687 53.4955475,15.1596006 54.0777215,15.5040432 L55.8588482,14.4377148 C55.2122144,13.4532002 55.0493685,12.8805042 55.0493685,11.321231 L55.0493685,8.77881814 L55.0493685,8.77881814 Z M42.5014155,4.51281716 L44.9298546,2.70741529 L44.9298546,0 L42.5014155,1.80402685 L42.5014155,4.51281716 L42.5014155,4.51281716 Z M73.6796148,2.7081028 L76.1080539,4.51281716 L76.1080539,1.80471436 L73.6796148,0.000687510231 L73.6796148,2.7081028 L73.6796148,2.7081028 Z M82.9075475,9.76195777 C81.936579,9.10469799 81.0456764,8.77950565 81.0456764,8.12293338 C81.0456764,7.71180226 81.368654,7.4656736 81.8544776,7.4656736 C82.9075475,7.4656736 84.0413619,8.53337698 84.0413619,8.53337698 L85.0937534,6.64478638 C85.0937534,6.64478638 83.7170272,5.5777705 81.936579,5.5777705 C79.6696288,5.5777705 78.940215,7.1363562 78.940215,8.12293338 C78.940215,9.68014405 79.9125405,10.4178425 81.0456764,11.156916 C82.1788123,11.895302 82.9075475,12.2225569 82.9075475,12.8805042 C82.9075475,13.207759 82.5838914,13.4538877 82.0166449,13.4538877 C81.368654,13.4538877 80.2355182,12.9602554 79.3452941,12.2225569 L78.1314138,14.1922737 C78.1314138,14.1922737 79.7503732,15.5040432 81.936579,15.5040432 C83.9606175,15.5040432 85.3366651,14.1922737 85.3366651,12.7148142 C85.3366651,11.156916 84.0413619,10.5835325 82.9075475,9.76195777 L82.9075475,9.76195777 Z M142.734407,5.5777705 L140.299861,11.8595515 L137.957595,5.5777705 L135.609221,6.56228515 L139.106336,14.7821575 L136.418701,19.8525454 L138.767074,21 L141.276936,15.1754133 L145,6.7266001 L142.734407,5.5777705 L142.734407,5.5777705 Z M63.5601009,13.0441316 L62.6691983,13.0441316 L62.6691983,3.93874611 L63.8023341,3.93874611 C66.7973411,3.93874611 68.8207011,5.33232935 68.8207011,8.36699951 C68.8207011,11.2387297 67.2017417,13.0441316 63.5601009,13.0441316 L63.5601009,13.0441316 Z M63.9638229,1.72290064 C61.2931506,1.72290064 59.7549357,1.72290064 58.4582754,0.820887216 L57.2437166,2.62560157 C57.2437166,2.62560157 58.045054,3.54274022 60.1593363,3.84249468 L60.1593363,13.0441316 L57.4873069,13.0441316 L57.4873069,15.1754133 L63.5601009,15.1754133 C68.4163005,15.1754133 71.3305631,12.4693731 71.3305631,8.45018825 C71.3305631,3.61011622 67.9297985,1.72290064 63.9638229,1.72290064 L63.9638229,1.72290064 Z M130.347264,7.67605173 L130.347264,5.90640039 L127.918825,5.90640039 L127.918825,15.1754133 L130.347264,15.1754133 L130.347264,9.63064331 C131.512291,9.18376166 133.296131,8.74238009 134.476764,8.36699951 L134.071685,5.66095924 C132.783167,5.79021116 131.392192,6.54784744 130.347264,7.67605173 L130.347264,7.67605173 Z M119.663896,9.40376494 C119.907487,8.30856114 120.676255,7.38248486 121.927454,7.38248486 C122.979845,7.38248486 123.30418,8.20405958 123.30418,9.27038795 L119.663896,9.40376494 L119.663896,9.40376494 Z M125.57113,8.85925683 C125.57113,7.05385497 124.437316,5.5777705 122.009555,5.5777705 C119.417592,5.5777705 117.233422,7.71248977 117.233422,10.5835325 C117.233422,13.1259453 118.608791,15.5040432 121.685221,15.5040432 C123.54777,15.5040432 124.842395,14.6020298 125.408285,14.11046 L124.35725,12.1407432 C123.871427,12.5511868 123.142691,13.2070715 121.847388,13.2070715 C120.529694,13.2070715 119.894595,12.3194958 119.675431,11.1954166 C121.0508,11.1252906 123.802217,10.9926011 125.166051,10.9926011 C125.408285,10.4178425 125.57113,9.76127026 125.57113,8.85925683 L125.57113,8.85925683 Z M111.404218,12.3064331 L109.137268,5.5777705 L106.708829,6.56228515 L110.108915,15.1754133 L112.455931,15.1754133 L116.261096,6.7266001 L113.913402,5.5777705 L111.404218,12.3064331 L111.404218,12.3064331 Z M100.718136,13.4538877 C99.5843219,13.4538877 98.7748422,12.3875593 98.7748422,10.8289736 C98.7748422,9.02425929 99.8265551,7.54748731 101.365449,7.54748731 C102.579329,7.54748731 103.308743,8.53337698 103.308743,10.1717139 C103.308743,11.9778032 102.094184,13.4538877 100.718136,13.4538877 L100.718136,13.4538877 Z M101.284026,5.5777705 C98.7748422,5.5777705 96.5085705,7.79361598 96.5085705,10.6632837 C96.5085705,13.7000164 98.2890187,15.5040432 100.718136,15.5040432 C103.469553,15.5040432 105.575014,13.0441316 105.575014,10.2542151 C105.575014,7.54748731 104.117544,5.5777705 101.284026,5.5777705 L101.284026,5.5777705 Z M91.7317582,7.30067114 C92.0554144,7.30067114 92.7841497,8.20405958 93.6750523,9.27038795 L95.2933331,6.97204125 C94.403109,6.15321657 93.5936294,5.5777705 91.97467,5.5777705 C89.3847421,5.5777705 87.0363689,7.79361598 87.0363689,10.6632837 C87.0363689,13.2070715 88.4124165,15.5040432 91.4888465,15.5040432 C93.3507176,15.5040432 94.6460208,14.6013423 95.2125887,14.11046 L94.1601973,12.1407432 C93.6750523,12.5511868 92.9456385,13.2070715 91.6503353,13.2070715 C90.2742877,13.2070715 89.3847421,11.9778032 89.3847421,10.3374038 C89.3847421,9.27038795 90.0320544,7.30067114 91.7317582,7.30067114 L91.7317582,7.30067114 Z M73.6796148,15.1754133 L76.1080539,15.1754133 L76.1080539,5.90640039 L73.6796148,5.90640039 L73.6796148,15.1754133 Z" id="Fill-3" fill="#FFFFFF"></path>
    </g>
</svg>