<?xml version="1.0" encoding="UTF-8"?>
<svg width="109px" height="95px" viewBox="0 0 109 95" version="1.1" xmlns="http://www.w3.org/2000/svg" xmlns:xlink="http://www.w3.org/1999/xlink">
    <!-- Generator: Sketch 40 (33762) - http://www.bohemiancoding.com/sketch -->
    <title>Fill 1</title>
    <desc>Created with Sketch.</desc>
    <defs></defs>
    <g id="Page-1" stroke="none" stroke-width="1" fill="none" fill-rule="evenodd">
        <path d="M19.1699696,14.6128378 C19.9324598,14.6872005 21.0901632,14.7656945 22.6545827,14.7656945 C25.6979704,14.7656945 27.0734107,13.9278747 27.0734107,12.0035333 C27.0734107,10.4220866 25.7464477,9.48676912 23.1935844,9.48676912 C21.4788031,9.48676912 20.2463297,9.63136326 19.1699696,9.73216602 L19.1699696,14.6128378 L19.1699696,14.6128378 Z M5.8691168,6.37758206 L8.81472821,1.39362875 C11.1219184,3.31797014 13.133315,4.15413738 16.9129,4.15413738 C19.2200902,4.15413738 22.2133573,3.95914185 23.9790808,3.95914185 C29.8686603,3.95914185 33.3056178,6.77005186 33.3056178,11.8068853 C33.3056178,15.1622955 31.4905953,17.781515 28.076644,18.9457044 C28.4570675,19.8917632 29.0166104,20.864262 29.8210047,21.7747919 C30.1159767,22.1085978 30.410127,22.4085274 30.7050989,22.6828431 L31.7551663,20.8493895 L40.8795776,4.81679165 L44.4677185,8.28291965 L49.2209575,-0.011 L51.3046592,2.00257663 L45.0921717,12.818218 L42.6370847,17.2692387 L43.4842047,11.2549488 L41.5286803,9.35374251 L34.1880687,22.2548445 L19.5503931,47.7918214 L17.4642265,45.7815498 L27.5622918,28.1650265 C26.7570758,27.5841712 25.9830826,26.8785518 25.2551016,26.020902 C23.6249501,24.0511168 22.6381498,21.7037343 22.1131161,19.5777873 C20.9241901,19.5397797 19.8938423,19.472027 19.1699696,19.4108844 L19.1699696,29.3267371 L12.5450143,29.3267371 L12.5450143,9.65615082 C10.8318763,9.41984269 9.62323075,9.02737289 8.81472821,8.64647062 C7.4392879,8.00282016 6.26268664,6.91795101 5.8691168,6.37758206 L5.8691168,6.37758206 Z M92.7042621,46.9622642 C98.3580283,46.8284114 101.889475,44.0976478 101.889475,39.3541339 C101.889475,34.5403885 97.7845174,32.8697066 95.3910541,32.8697066 C94.5751567,32.8697066 93.6236872,32.946548 92.7042621,33.0209107 L92.7042621,46.9622642 L92.7042621,46.9622642 Z M86.1097078,52.4204863 L86.1097078,52.3923937 C86.0908099,52.3907412 86.0710903,52.3907412 86.0521924,52.3907412 C86.5895508,53.245086 87.3150668,54.378704 88.2492816,55.6114723 C90.4595172,58.5322739 94.3270187,62.9527232 100.190305,67.4351414 L98.4936004,69.6817212 C95.0969038,67.0815055 90.1620803,62.8147391 85.9527728,57.2334054 C83.4073045,53.8540339 82.331766,51.5934078 82.287397,51.5008676 L81.2019987,49.1939714 L83.7187094,49.4947272 C83.7343207,49.4963797 84.7671334,49.6145338 86.4359024,49.6269276 C82.5084205,46.4359416 79.5734906,43.2903994 77.6705516,41.0297734 C75.0774276,37.9387639 73.7997635,35.7921606 73.7488213,35.7037516 L72.1359245,32.9721618 L75.2294327,33.598461 C75.2360059,33.598461 75.6114994,33.6719975 76.2293794,33.7141363 C70.3192587,27.3272068 67.910184,22.4258787 67.8009047,22.1970068 L70.320902,20.9617598 C70.3274752,20.972501 71.0513479,22.4457087 72.6461685,24.7782187 C74.119385,26.928127 76.6582802,30.2703171 80.3893879,33.9760583 L82.364632,35.937581 L79.6260761,36.3738422 C78.949859,36.481255 78.3081512,36.5390926 77.7247805,36.5556177 C78.2867883,37.3223797 78.9983363,38.2395197 79.8610677,39.2673774 C81.3162079,40.9934183 83.4089478,43.2614806 86.1097078,45.657612 L86.1097078,32.8870579 C84.4795563,32.651576 83.2462613,32.2871988 82.3966763,31.8864664 C81.0294525,31.2477735 79.8561378,30.1670356 79.4650329,29.6274929 L82.3966763,24.6658484 C84.693185,26.5827535 86.6955435,27.4147895 90.4578739,27.4147895 L95.147846,27.4147895 C102.231281,27.4147895 108.24,31.1015269 108.24,39.1583121 C108.24,47.066372 102.573087,52.4204863 93.2900978,52.4204863 L86.1097078,52.4204863 L86.1097078,52.4204863 Z M20.9964952,60.564028 C20.9964952,59.2618546 20.1354071,58.395116 18.8404884,58.395116 C17.7690582,58.395116 17.0213577,58.4860037 16.4256622,58.5380576 L16.4256622,62.5941297 C16.8110156,62.6618824 17.425609,62.7321138 18.3228496,62.7321138 C20.2192153,62.7321138 20.9964952,61.6910361 20.9964952,60.564028 L20.9964952,60.564028 Z M23.9297819,70.7955091 C22.8082311,70.5352397 21.7729534,69.9295968 20.5659512,68.7166586 C19.5610745,67.7061521 18.76654,66.2783883 18.363932,64.8060069 C17.4913409,64.7861768 16.83813,64.7134666 16.4256622,64.6481927 L16.4256622,70.4484832 L13.7520166,70.4484832 L13.7520166,58.6107678 C13.1242768,58.6198566 12.6830514,58.5868065 12.1136487,58.395116 C11.4218203,58.1348466 10.9920979,57.7002379 10.7324568,57.3540382 L11.9402807,55.4453956 C12.8038338,56.052691 13.2343778,56.4021957 15.3903846,56.4021957 C16.5102921,56.4021957 17.9794003,56.2270302 18.9275832,56.2270302 C21.514134,56.2270302 23.583046,57.6143077 23.583046,60.4772716 C23.583046,62.2206637 22.4664251,63.6955239 20.8789994,64.3862708 C21.1986208,65.1431178 21.7244762,66.0197714 22.4631385,66.8939462 C23.3242266,67.8482675 24.1877796,68.2803974 25.1367842,68.6299021 L23.9297819,70.7955091 L23.9297819,70.7955091 Z M51.0951387,64.7266867 C50.0606827,64.0318086 49.1116782,63.6856089 49.1116782,62.9923833 C49.1116782,62.5577746 49.4567708,62.2958527 49.9744096,62.2958527 C51.0951387,62.2958527 52.3029627,63.4245132 52.3029627,63.4245132 L53.4236918,61.4299404 C53.4236918,61.4299404 51.9570485,60.3029324 50.0606827,60.3029324 C47.6466782,60.3029324 46.8693983,61.9504793 46.8693983,62.9923833 C46.8693983,64.6399302 47.9038543,65.4207385 49.1116782,66.1998944 C50.3186805,66.9798764 51.0951387,67.3293811 51.0951387,68.020128 C51.0951387,68.3704589 50.7500462,68.6299021 50.1469559,68.6299021 C49.4567708,68.6299021 48.2481252,68.1077107 47.2999423,67.3293811 L46.3517595,69.4090579 C46.3517595,69.4090579 47.7321297,70.7955091 50.0606827,70.7955091 C52.2166895,70.7955091 53.6825112,69.4090579 53.6825112,67.8482675 C53.6825112,66.1998944 52.3029627,65.592599 51.0951387,64.7266867 L51.0951387,64.7266867 Z M26.1704185,60.6499583 L26.1704185,67.2401459 C26.1704185,69.1479622 27.0339715,70.7955091 29.3617029,70.7955091 C31.0871657,70.7955091 31.9490754,69.7569101 32.4683575,69.1479622 L32.5061534,69.1479622 C32.7362151,69.9618207 33.248924,70.4757495 33.7608113,70.7955091 L35.830545,69.5842234 C35.3137278,68.8009363 34.8815404,67.761511 34.8815404,65.8536947 L34.8815404,60.6499583 L32.3804411,60.6499583 L32.3804411,67.0575441 C31.9277125,67.8573563 31.1142801,68.5414931 30.2244343,68.5414931 C29.1037052,68.5414931 28.6731611,68.020128 28.6731611,66.2874771 L28.6731611,60.6499583 L26.1704185,60.6499583 L26.1704185,60.6499583 Z M44.8013079,67.8482675 C44.8013079,66.1998944 43.4184728,65.592599 42.2114705,64.7266867 C41.1778362,64.0318086 40.2296533,63.6856089 40.2296533,62.9923833 C40.2296533,62.5577746 40.5731026,62.2958527 41.0907414,62.2958527 C42.2114705,62.2958527 43.4184728,63.4245132 43.4184728,63.4245132 L44.5424885,61.4299404 C44.5424885,61.4299404 43.0750235,60.3029324 41.1778362,60.3029324 C38.76301,60.3029324 37.9849084,61.9504793 37.9849084,62.9923833 C37.9849084,64.6399302 39.0218294,65.4207385 40.2296533,66.1998944 C41.4366556,66.9798764 42.2114705,67.3293811 42.2114705,68.020128 C42.2114705,68.3704589 41.8671996,68.6299021 41.262466,68.6299021 C40.5731026,68.6299021 39.3661003,68.1077107 38.4170958,67.3293811 L37.4672696,69.4090579 C37.4672696,69.4090579 38.8492831,70.7955091 41.1778362,70.7955091 C43.333843,70.7955091 44.8013079,69.4090579 44.8013079,67.8482675 L44.8013079,67.8482675 Z M56.0118859,70.4484832 L58.5976151,70.4484832 L58.5976151,60.6483058 L56.0118859,60.6483058 L56.0118859,70.4484832 Z M66.9636445,66.146188 C66.6292334,66.1800643 66.1378873,66.2469907 65.4970011,66.3725811 C64.376272,66.6328505 63.7715384,66.9798764 63.7715384,67.8482675 C63.7715384,68.3688064 64.1174526,68.8009363 64.8076377,68.8009363 C65.8116927,68.8009363 66.6925003,68.023433 66.9636445,67.761511 L66.9636445,66.146188 L66.9636445,66.146188 Z M63.9449063,70.7955091 C62.3081816,70.7955091 61.1849876,69.5825709 61.1849876,68.1077107 C61.1849876,65.235658 64.7098615,64.4209734 66.9636445,64.3813132 L66.9636445,64.0318086 C66.9636445,62.7321138 66.8765497,62.0372357 65.2381817,62.0372357 L62.7370824,63.8591219 L61.5292585,61.7769663 C62.3919898,60.9978105 64.1174526,60.3029324 65.8429153,60.3029324 C67.9118273,60.3029324 69.3784707,61.3440101 69.3784707,63.6856089 L69.3784707,66.3725811 C69.3784707,68.020128 69.5510169,68.6299021 70.241202,69.6701536 L68.343193,70.7955091 C67.7228481,70.4311319 67.3506411,69.9411643 67.1509804,69.2875989 C66.5618581,69.9271181 65.5356186,70.7955091 63.9449063,70.7955091 L63.9449063,70.7955091 Z M58.5976151,56.3121342 L56.0118859,54.4026653 L56.0118859,57.2672817 L58.5976151,59.1759243 L58.5976151,56.3121342 L58.5976151,56.3121342 Z M17.7476954,77.5567309 L20.3367111,75.6480883 L20.3367111,72.7867769 L17.7476954,74.6945933 L17.7476954,77.5567309 L17.7476954,77.5567309 Z M27.5803681,83.1074933 C26.5442688,82.4142677 25.5960859,82.0655892 25.5960859,81.3723636 C25.5960859,80.9402337 25.9420001,80.6799643 26.4596389,80.6799643 C27.5803681,80.6799643 28.7890136,81.806146 28.7890136,81.806146 L29.9080995,79.810747 C29.9080995,79.810747 28.4422778,78.6820864 26.5442688,78.6820864 C24.1302642,78.6820864 23.3554493,80.3304596 23.3554493,81.3723636 C23.3554493,83.0190843 24.388262,83.8015451 25.5960859,84.5815272 C26.8039098,85.3615093 27.5803681,85.7093615 27.5803681,86.4025871 C27.5803681,86.7512655 27.2352755,87.0107087 26.6321852,87.0107087 C25.9420001,87.0107087 24.7341762,86.4893435 23.7851717,85.7093615 L22.4910746,87.7906908 C22.4910746,87.7906908 24.2165374,89.1779682 26.5442688,89.1779682 C28.7002756,89.1779682 30.1677405,87.7906908 30.1677405,86.2282478 C30.1677405,84.5815272 28.7890136,83.9742318 27.5803681,83.1074933 L27.5803681,83.1074933 Z M88.7209081,85.3235017 L86.223917,78.6820864 L83.7252826,79.7248167 L87.4498172,88.4153374 L84.585549,93.7744093 L87.0866484,94.989 L89.7611156,88.830116 L93.7280366,79.8975034 L91.3140321,78.6820864 L88.7209081,85.3235017 L88.7209081,85.3235017 Z M12.5737721,81.6326331 C12.5737721,78.4226433 10.4169436,76.9502618 7.22730248,76.9502618 L6.01947856,76.9502618 L6.01947856,86.5752738 L6.96683977,86.5752738 C10.849131,86.5752738 12.5737721,84.6666312 12.5737721,81.6326331 L12.5737721,81.6326331 Z M15.246596,81.7193896 C15.246596,85.9696309 12.1424064,88.830116 6.96683977,88.830116 L0.498819412,88.830116 L0.498819412,86.5752738 L3.3450113,86.5752738 L3.3450113,76.849459 C1.09369324,76.5338307 0.24,75.5621581 0.24,75.5621581 L1.53491871,73.655168 C2.91364561,74.6070106 4.55201357,74.6070106 7.39902711,74.6070106 C11.6247675,74.6070106 15.246596,76.6032359 15.246596,81.7193896 L15.246596,81.7193896 Z M78.1175287,80.9030524 L78.1175287,79.0315911 L75.5301562,79.0315911 L75.5301562,88.830116 L78.1175287,88.830116 L78.1175287,82.9703354 C79.3590402,82.4952404 81.2595142,82.0284079 82.516637,81.6326331 L82.086093,78.7721479 C80.7131176,78.9093058 79.2292197,79.7082917 78.1175287,80.9030524 L78.1175287,80.9030524 Z M70.6142307,82.5877806 C70.6142307,81.4591201 70.2699598,80.590729 69.148409,80.590729 C67.8156944,80.590729 66.9956888,81.5690117 66.7368694,82.7282435 L70.6142307,82.5877806 L70.6142307,82.5877806 Z M72.5985128,84.407188 C71.1466592,84.407188 68.2150158,84.5484771 66.7483725,84.6220136 C66.9841857,85.8101642 67.6579378,86.7512655 69.0621358,86.7512655 C70.442506,86.7512655 71.2197859,86.0547349 71.7374247,85.6209525 L72.8581539,87.7039343 C72.2534203,88.2228207 70.8738717,89.1779682 68.8904112,89.1779682 C65.612032,89.1779682 64.1470319,86.6628565 64.1470319,83.9742318 C64.1470319,80.9402337 66.475585,78.6820864 69.2346821,78.6820864 C71.8228762,78.6820864 73.0298785,80.2453556 73.0298785,82.153172 C73.0298785,83.1058408 72.8581539,83.8015451 72.5985128,84.407188 L72.5985128,84.407188 Z M57.937831,85.7961179 L55.5230048,78.6820864 L52.936454,79.7248167 L56.5582824,88.830116 L59.0593818,88.830116 L63.1109326,79.8975034 L60.6098333,78.6820864 L57.937831,85.7961179 L57.937831,85.7961179 Z M49.3121606,83.5404494 C49.3121606,81.806146 48.536524,80.7650683 47.2432486,80.7650683 C45.6057022,80.7650683 44.4849731,82.3275112 44.4849731,84.2345013 C44.4849731,85.8820482 45.3460612,87.0107087 46.5538851,87.0107087 C48.0205284,87.0107087 49.3121606,85.449092 49.3121606,83.5404494 L49.3121606,83.5404494 Z M51.7278084,83.6280322 C51.7278084,86.5752738 49.4855285,89.1779682 46.5538851,89.1779682 C43.9665126,89.1779682 42.0701469,87.2701519 42.0701469,84.0618146 C42.0701469,81.026164 44.4849731,78.6820864 47.1561538,78.6820864 C50.1773569,78.6820864 51.7278084,80.7650683 51.7278084,83.6280322 L51.7278084,83.6280322 Z M36.9800318,80.5056251 C37.3251244,80.5056251 38.1032259,81.4591201 39.0514087,82.5877806 L40.7752282,80.1569466 C39.8262237,79.2910343 38.9651356,78.6820864 37.2396729,78.6820864 C34.4797541,78.6820864 31.9786548,81.026164 31.9786548,84.0609883 C31.9786548,86.7512655 33.4444765,89.1779682 36.7212124,89.1779682 C38.7054945,89.1779682 40.0850431,88.2228207 40.6897767,87.7039343 L39.5682259,85.6209525 C39.0514087,86.0547349 38.2749505,86.7512655 36.8962236,86.7512655 C35.427937,86.7512655 34.4797541,85.449092 34.4797541,83.7139624 C34.4797541,82.5877806 35.1691176,80.5056251 36.9800318,80.5056251 L36.9800318,80.5056251 Z M17.7476954,88.830116 L20.3367111,88.830116 L20.3367111,79.0315911 L17.7476954,79.0315911 L17.7476954,88.830116 Z" id="Fill-1" fill="#C6C6C6"></path>
    </g>
</svg>